<?xml version="1.0" encoding="UTF-8" standalone="no"?>
<!-- Generator: Adobe Illustrator 23.0.4, SVG Export Plug-In . SVG Version: 6.00 Build 0)  -->

<svg
   xmlns:dc="http://purl.org/dc/elements/1.1/"
   xmlns:cc="http://creativecommons.org/ns#"
   xmlns:rdf="http://www.w3.org/1999/02/22-rdf-syntax-ns#"
   xmlns:svg="http://www.w3.org/2000/svg"
   xmlns="http://www.w3.org/2000/svg"
   xmlns:sodipodi="http://sodipodi.sourceforge.net/DTD/sodipodi-0.dtd"
   xmlns:inkscape="http://www.inkscape.org/namespaces/inkscape"
   version="1.1"
   x="0px"
   y="0px"
   viewBox="0 0 300 299.99999"
   xml:space="preserve"
   id="svg14"
   sodipodi:docname="android-logo.svg"
   width="300"
   height="300"
   inkscape:version="0.92.4 (5da689c313, 2019-01-14)"><metadata
   id="metadata20"><rdf:RDF><cc:Work
       rdf:about=""><dc:format>image/svg+xml</dc:format><dc:type
         rdf:resource="http://purl.org/dc/dcmitype/StillImage" /><dc:title></dc:title></cc:Work></rdf:RDF></metadata><defs
   id="defs18"><clipPath
     clipPathUnits="userSpaceOnUse"
     id="clipPath3720"><rect
       style="fill:#000000;fill-opacity:1;stroke-width:3.77952766;stroke-miterlimit:4;stroke-dasharray:none"
       id="rect3722"
       width="270.59625"
       height="161.64276"
       x="14.701874"
       y="71.988548" /></clipPath><clipPath
     clipPathUnits="userSpaceOnUse"
     id="clipPath3724"><rect
       style="fill:#000000;fill-opacity:1;stroke-width:3.77952766;stroke-miterlimit:4;stroke-dasharray:none"
       id="rect3726"
       width="270.59625"
       height="161.64276"
       x="98.225098"
       y="96.906601" /></clipPath></defs><sodipodi:namedview
   pagecolor="#ffffff"
   bordercolor="#666666"
   borderopacity="1"
   objecttolerance="10"
   gridtolerance="10"
   guidetolerance="10"
   inkscape:pageopacity="0"
   inkscape:pageshadow="2"
   inkscape:window-width="1920"
   inkscape:window-height="1001"
   id="namedview16"
   showgrid="false"
   inkscape:zoom="1.4516757"
   inkscape:cx="177.22319"
   inkscape:cy="153.09964"
   inkscape:window-x="-9"
   inkscape:window-y="-9"
   inkscape:window-maximized="1"
   inkscape:current-layer="svg14" />
<style
   type="text/css"
   id="style2">
	.st0{fill:#3DDB85;}
	.st1{fill:none;}
</style>
<g
   id="Layer_1"
   transform="translate(-83.523224,-23.53525)"
   clip-path="url(#clipPath3724)">
	<g
   id="g10">
		<g
   id="g6">
			<path
   class="st0"
   d="m 293.91034,212.77477 c -6.02515,0 -10.92627,-4.90459 -10.92627,-10.92982 0,-6.02523 4.90112,-10.92628 10.92627,-10.92628 6.02536,0 10.92627,4.90105 10.92627,10.92628 0,6.02523 -4.90091,10.92982 -10.92627,10.92982 m -120.77423,0 c -6.02538,0 -10.92627,-4.90459 -10.92627,-10.92982 0,-6.02523 4.90089,-10.92628 10.92627,-10.92628 6.02515,0 10.92625,4.90105 10.92625,10.92628 0,6.02523 -4.90111,10.92982 -10.92625,10.92982 m 124.69308,-65.82016 21.83826,-37.82177 c 1.25195,-2.17392 0.50714,-4.95069 -1.66324,-6.2061 -2.17035,-1.25186 -4.95068,-0.50713 -6.20609,1.66323 l -22.11142,38.30052 c -16.909,-7.71684 -35.8996,-12.015 -56.1636,-12.015 -20.26378,0 -39.25438,4.29816 -56.16338,12.015 l -22.1114,-38.30052 c -1.25543,-2.17036 -4.03575,-2.91509 -6.20612,-1.66323 -2.17036,1.25541 -2.91862,4.03218 -1.66321,6.2061 l 21.83824,37.82177 c -37.49896,20.39503 -63.14611,58.35866 -66.89809,103.20929 h 262.40811 c -3.75542,-44.85064 -29.40257,-82.81426 -66.89806,-103.20929"
   id="path4"
   inkscape:connector-curvature="0"
   style="fill:#3ddb85" />
		</g>
		<rect
   class="st1"
   width="467.04645"
   height="250.16389"
   id="rect8"
   x="0"
   y="0"
   style="fill:none" />
	</g>
</g>
<g
   id="Layer_2"
   transform="translate(0,49.836105)"
   clip-path="url(#clipPath3720)">
</g>
</svg>