<?xml version="1.0" encoding="UTF-8" standalone="no"?>
<svg
   xmlns:dc="http://purl.org/dc/elements/1.1/"
   xmlns:cc="http://creativecommons.org/ns#"
   xmlns:rdf="http://www.w3.org/1999/02/22-rdf-syntax-ns#"
   xmlns:svg="http://www.w3.org/2000/svg"
   xmlns="http://www.w3.org/2000/svg"
   xmlns:sodipodi="http://sodipodi.sourceforge.net/DTD/sodipodi-0.dtd"
   xmlns:inkscape="http://www.inkscape.org/namespaces/inkscape"
   version="1.1"
   x="0px"
   y="0px"
   viewBox="0 0 120 120"
   enable-background="new 0 0 100 100"
   xml:space="preserve"
   id="svg12"
   sodipodi:docname="Database_(6001)_-_The_Noun_Project.svg"
   width="300"
   height="300"
   inkscape:version="0.92.4 (5da689c313, 2019-01-14)"><metadata
     id="metadata18"><rdf:RDF><cc:Work
         rdf:about=""><dc:format>image/svg+xml</dc:format><dc:type
           rdf:resource="http://purl.org/dc/dcmitype/StillImage" /><dc:title></dc:title></cc:Work></rdf:RDF></metadata><defs
     id="defs16" /><sodipodi:namedview
     pagecolor="#ffffff"
     bordercolor="#666666"
     borderopacity="1"
     objecttolerance="10"
     gridtolerance="10"
     guidetolerance="10"
     inkscape:pageopacity="0"
     inkscape:pageshadow="2"
     inkscape:window-width="1920"
     inkscape:window-height="1001"
     id="namedview14"
     showgrid="false"
     scale-x="0.4"
     inkscape:zoom="0.834386"
     inkscape:cx="-106.75575"
     inkscape:cy="-70.599823"
     inkscape:window-x="-9"
     inkscape:window-y="-9"
     inkscape:window-maximized="1"
     inkscape:current-layer="svg12" /><path
     d="m 60,10 c -27.614,0 -50,3.214 -50,7.179 v 21.886 c 0,3.964 22.386,7.179 50,7.179 27.612,0 50,-3.215 50,-7.179 V 17.179 C 110,13.214 87.612,10 60,10 Z"
     id="path2"
     inkscape:connector-curvature="0"
     style="fill:#ffffff" /><g
     id="g6"
     transform="translate(10,10)"
     style="fill:#ffffff"><path
       d="M 50,46.24 C 22.386,46.24 0,43.025 0,39.061 v 21.885 c 0,3.964 22.386,7.18 50,7.18 27.612,0 50,-3.216 50,-7.18 V 39.061 c 0,3.964 -22.388,7.179 -50,7.179 z"
       id="path4"
       inkscape:connector-curvature="0"
       style="fill:#ffffff" /></g><g
     id="g10"
     transform="translate(10,10)"
     style="fill:#ffffff"><path
       d="M 50,78.116 C 22.386,78.116 0,74.9 0,70.935 V 92.821 C 0,96.787 22.386,100 50,100 c 27.612,0 50,-3.213 50,-7.179 V 70.936 c 0,3.964 -22.388,7.18 -50,7.18 z"
       id="path8"
       inkscape:connector-curvature="0"
       style="fill:#ffffff" /></g></svg>