<?xml version="1.0" encoding="UTF-8" standalone="no"?>
<svg
   xmlns:dc="http://purl.org/dc/elements/1.1/"
   xmlns:cc="http://creativecommons.org/ns#"
   xmlns:rdf="http://www.w3.org/1999/02/22-rdf-syntax-ns#"
   xmlns:svg="http://www.w3.org/2000/svg"
   xmlns="http://www.w3.org/2000/svg"
   xmlns:sodipodi="http://sodipodi.sourceforge.net/DTD/sodipodi-0.dtd"
   xmlns:inkscape="http://www.inkscape.org/namespaces/inkscape"
   width="300"
   height="300"
   viewBox="0 0 1050 1050"
   version="1.1"
   id="svg4"
   sodipodi:docname="Octicons-mark-github.svg"
   style="fill:none"
   inkscape:version="0.92.4 (5da689c313, 2019-01-14)">
  <metadata
     id="metadata10">
    <rdf:RDF>
      <cc:Work
         rdf:about="">
        <dc:format>image/svg+xml</dc:format>
        <dc:type
           rdf:resource="http://purl.org/dc/dcmitype/StillImage" />
        <dc:title></dc:title>
      </cc:Work>
    </rdf:RDF>
  </metadata>
  <defs
     id="defs8" />
  <sodipodi:namedview
     pagecolor="#ffffff"
     bordercolor="#666666"
     borderopacity="1"
     objecttolerance="10"
     gridtolerance="10"
     guidetolerance="10"
     inkscape:pageopacity="0"
     inkscape:pageshadow="2"
     inkscape:window-width="1920"
     inkscape:window-height="1001"
     id="namedview6"
     showgrid="false"
     scale-x="3.5"
     inkscape:zoom="0.921875"
     inkscape:cx="206.63037"
     inkscape:cy="221.0085"
     inkscape:window-x="-9"
     inkscape:window-y="-9"
     inkscape:window-maximized="1"
     inkscape:current-layer="svg4" />
  <path
     d="m 524.99999,25.630936 c -282.88,0 -512.000001,229.119994 -512.000001,511.999994 0,226.56 146.560001,417.92 350.080001,485.76007 25.6,4.48 35.2,-10.8801 35.2,-24.32007 0,-12.16 -0.64,-52.48 -0.64,-95.36 -128.64,23.68 -161.92,-31.36 -172.16,-60.16 -5.76,-14.72 -30.72,-60.16 -52.48,-72.32 -17.92,-9.6 -43.52,-33.28 -0.64,-33.92 40.32,-0.64 69.12,37.12 78.72,52.48 46.08,77.44 119.68,55.68 149.12,42.24 4.48,-33.28 17.92,-55.68 32.64,-68.48 -113.92,-12.8 -232.96,-56.96 -232.96,-252.8 0,-55.68 19.84,-101.76 52.48,-137.6 -5.12,-12.8 -23.04,-65.28 5.12,-135.68 0,0 42.88,-13.44 140.8,52.48 40.96,-11.52 84.48,-17.28 128,-17.28 43.52,0 87.04,5.76 128,17.28 97.92,-66.56 140.8,-52.48 140.8,-52.48 28.16,70.4 10.24,122.88 5.12,135.68 32.64,35.84 52.48,81.28 52.48,137.6 0,196.48 -119.68,240 -233.6,252.8 18.56,16 34.56,46.72 34.56,94.72 0,68.48 -0.64,123.52 -0.64,140.8 0,13.43997 9.6,29.44007 35.2,24.32007 C 890.43999,955.55093 1037,763.55093 1037,537.63093 1037,254.75093 807.87999,25.630936 524.99999,25.630936 Z"
     id="path2"
     inkscape:connector-curvature="0"
     style="clip-rule:evenodd;fill:#1b1f23;fill-rule:evenodd;stroke-width:64" />
</svg>
