<?xml version="1.0" encoding="UTF-8" standalone="no"?>
<svg
   xmlns:dc="http://purl.org/dc/elements/1.1/"
   xmlns:cc="http://creativecommons.org/ns#"
   xmlns:rdf="http://www.w3.org/1999/02/22-rdf-syntax-ns#"
   xmlns:svg="http://www.w3.org/2000/svg"
   xmlns="http://www.w3.org/2000/svg"
   xmlns:sodipodi="http://sodipodi.sourceforge.net/DTD/sodipodi-0.dtd"
   xmlns:inkscape="http://www.inkscape.org/namespaces/inkscape"
   id="Group_1282"
   data-name="Group 1282"
   width="300"
   height="300"
   viewBox="0 0 69 69"
   version="1.1"
   sodipodi:docname="linkedin-logo.svg"
   inkscape:version="0.92.4 (5da689c313, 2019-01-14)">
  <metadata
     id="metadata10">
    <rdf:RDF>
      <cc:Work
         rdf:about="">
        <dc:format>image/svg+xml</dc:format>
        <dc:type
           rdf:resource="http://purl.org/dc/dcmitype/StillImage" />
        <dc:title></dc:title>
      </cc:Work>
    </rdf:RDF>
  </metadata>
  <defs
     id="defs8" />
  <sodipodi:namedview
     pagecolor="#ffffff"
     bordercolor="#666666"
     borderopacity="1"
     objecttolerance="10"
     gridtolerance="10"
     guidetolerance="10"
     inkscape:pageopacity="0"
     inkscape:pageshadow="2"
     inkscape:window-width="1920"
     inkscape:window-height="1001"
     id="namedview6"
     showgrid="false"
     scale-x="0.22"
     inkscape:zoom="0.63863243"
     inkscape:cx="-396.75372"
     inkscape:cy="-83.202569"
     inkscape:window-x="-9"
     inkscape:window-y="-9"
     inkscape:window-maximized="1"
     inkscape:current-layer="Group_1282" />
  <path
     id="Path_2520"
     data-name="Path 2520"
     d="m 57.3095,57.31002 h -9.6 v -15.034 c 0,-3.585 -0.064,-8.2 -4.993,-8.2 -5,0 -5.765,3.906 -5.765,7.939 v 15.294 h -9.6 v -30.916 h 9.216 v 4.225 h 0.129 a 10.1,10.1 0 0 1 9.093,-4.994 c 9.73,0 11.524,6.4 11.524,14.726 z m -40.79,-35.143 a 5.571,5.571 0 1 1 5.57,-5.572 5.571,5.571 0 0 1 -5.57,5.572 m 4.8,35.143 h -9.61 v -30.917 h 9.61 z M 62.0955,2.1100193 H 6.8855001 a 4.728,4.728 0 0 0 -4.781,4.6699999 V 62.21902 a 4.731,4.731 0 0 0 4.781,4.675 H 62.0955 a 4.741,4.741 0 0 0 4.8,-4.675 V 6.7760192 a 4.738,4.738 0 0 0 -4.8,-4.6699999"
     inkscape:connector-curvature="0"
     style="fill:#0a66c2" />
</svg>
