<?xml version="1.0" encoding="UTF-8" standalone="no"?>
<!-- Created with Inkscape (http://www.inkscape.org/) -->

<svg
   xmlns:dc="http://purl.org/dc/elements/1.1/"
   xmlns:cc="http://creativecommons.org/ns#"
   xmlns:rdf="http://www.w3.org/1999/02/22-rdf-syntax-ns#"
   xmlns:svg="http://www.w3.org/2000/svg"
   xmlns="http://www.w3.org/2000/svg"
   xmlns:sodipodi="http://sodipodi.sourceforge.net/DTD/sodipodi-0.dtd"
   xmlns:inkscape="http://www.inkscape.org/namespaces/inkscape"
   width="300"
   height="300"
   viewBox="0 0 31.75 31.75"
   version="1.1"
   id="svg759"
   inkscape:version="0.92.4 (5da689c313, 2019-01-14)"
   sodipodi:docname="yb-logo.svg"
   inkscape:export-filename="D:\Users\yashb\Downloads\yblogo1.png"
   inkscape:export-xdpi="95.999992"
   inkscape:export-ydpi="95.999992">
  <defs
     id="defs753">
    <clipPath
       clipPathUnits="userSpaceOnUse"
       id="clipPath3728">
      <rect
         style="fill:#000000;fill-opacity:1;stroke:none;stroke-width:0.5;stroke-miterlimit:4;stroke-dasharray:none;stroke-opacity:1"
         id="rect3730"
         width="36.247917"
         height="36.115627"
         x="1.7197917"
         y="226.09167" />
    </clipPath>
    <clipPath
       clipPathUnits="userSpaceOnUse"
       id="clipPath3745">
      <rect
         style="fill:#000000;fill-opacity:1;stroke:none;stroke-width:0.5;stroke-miterlimit:4;stroke-dasharray:none;stroke-opacity:1"
         id="rect3747"
         width="28.442709"
         height="30.427084"
         x="5.953125"
         y="228.20834" />
    </clipPath>
  </defs>
  <sodipodi:namedview
     id="base"
     pagecolor="#ffffff"
     bordercolor="#666666"
     borderopacity="1.0"
     inkscape:pageopacity="0.0"
     inkscape:pageshadow="2"
     inkscape:zoom="0.70710677"
     inkscape:cx="-131.64636"
     inkscape:cy="154.41652"
     inkscape:document-units="mm"
     inkscape:current-layer="layer1"
     showgrid="false"
     inkscape:window-width="1920"
     inkscape:window-height="1001"
     inkscape:window-x="-9"
     inkscape:window-y="-9"
     inkscape:window-maximized="1"
     inkscape:snap-bbox="false"
     units="px"
     scale-x="0.5">
    <inkscape:grid
       type="xygrid"
       id="grid3738" />
  </sodipodi:namedview>
  <metadata
     id="metadata756">
    <rdf:RDF>
      <cc:Work
         rdf:about="">
        <dc:format>image/svg+xml</dc:format>
        <dc:type
           rdf:resource="http://purl.org/dc/dcmitype/StillImage" />
        <dc:title></dc:title>
      </cc:Work>
    </rdf:RDF>
  </metadata>
  <g
     inkscape:label="Layer 1"
     inkscape:groupmode="layer"
     id="layer1"
     transform="translate(0,-224.23959)">
    <path
       style="fill:#000000;stroke-width:0.49028581"
       d="m 21.444537,228.30646 c -0.01918,0.005 -0.0313,0.008 -0.05012,0.0129 -0.780939,0.20313 0.05024,-0.0129 -0.780833,0.20309 -1.365036,0.33573 -1.276051,0.22964 -1.703771,1.09761 -0.365731,0.67606 -0.69854,1.3708 -1.114661,2.01848 -0.688538,1.02281 -1.38503,2.04053 -2.074291,3.06286 -0.75321,1.05639 -1.506543,2.1142 -2.312004,3.13159 -0.671656,0.83477 -1.377279,1.63897 -2.145089,2.38745 -0.159732,0.15255 -0.467155,0.26975 -0.467155,0.26975 -0.274245,0.0722 -0.324694,0.0686 -0.525549,0.0786 -0.3654804,-0.0159 -0.7653844,-0.013 -1.0738364,-0.23513 -0.27583,-0.34737 -0.419449,-0.74575 -0.436149,-1.19166 -0.0462,-0.68879 -0.0024,-1.38076 0.0088,-2.07015 0.03762,-0.92863 0.110213,-1.85502 0.154512,-2.7833 0.02148,-0.98046 0.05078,-1.96281 0.157613,-2.93832 l -2.3218218,1.15652 c -0.06338,0.97749 -0.09,1.9561 -0.1111044,2.93522 -0.05911,0.92934 -0.1348507,1.85689 -0.1741495,2.78743 -0.0019,0.70079 -0.069939,1.40633 -0.01292,2.10581 0.022381,0.49445 0.2100442,0.93422 0.4991941,1.32809 0.3208901,0.32787 1.0692643,0.53703 1.5037846,0.57567 0.502851,0.0457 0.979753,0.0276 1.455725,-0.14572 1.5088034,-0.54863 1.9426024,-1.17507 2.9217854,-2.02882 0.193371,-0.16279 0.617313,-0.64652 0.791683,-0.82372 0.762142,-0.75456 1.454969,-1.56895 2.11925,-2.40968 0.788364,-1.02871 1.549266,-2.07949 2.294435,-3.13986 0.03416,-0.0516 0.06958,-0.10244 0.10387,-0.15399 -0.120626,0.4047 -0.240035,0.80971 -0.353467,1.21646 -0.70675,2.41744 -1.230799,4.88019 -1.750798,7.34271 -0.744072,3.55334 -1.307521,7.13981 -1.844331,10.72906 -0.251029,1.7604 -0.530342,3.51672 -0.794269,5.27513 0.03754,0.004 0.07512,0.007 0.112655,0.0108 0.625236,0.0131 1.234101,0.1444 1.843299,0.26924 2.62e-4,-0.001 7.93e-4,-0.002 0.0011,-0.003 0.02249,-0.0909 0.03501,-0.18402 0.05271,-0.27595 0.01085,-0.043 0.02072,-0.0861 0.03101,-0.12919 0.0095,-0.0695 0.0204,-0.13878 0.02997,-0.20826 9e-5,-7.9e-4 -9.5e-5,-5.3e-4 0,-0.002 2.54e-4,-0.002 7.94e-4,-0.004 0.0011,-0.006 0.274688,-1.99448 0.578803,-3.98512 0.85783,-5.97897 0.540422,-3.58975 1.098981,-7.17889 1.874821,-10.72699 0.54251,-2.47913 1.120254,-4.94965 1.861384,-7.37836 0.390469,-1.35476 0.834678,-2.69449 1.18029,-4.06177 0.03856,-0.18546 0.173522,-0.77248 0.194821,-0.97565 0.01101,-0.10886 0.09962,-0.35722 -0.0052,-0.32814 z m -5.994982,29.66589 c 0.421071,0.0375 0.834385,0.14853 1.247468,0.2558 1.72e-4,-8e-4 2.65e-4,-0.002 5.29e-4,-0.003 l 0.46354,-0.22117 c 0.0013,-5.3e-4 0.0026,-0.001 0.0041,-0.002 0.0013,-8e-4 0.0026,-0.002 0.0031,-0.002 l 5.29e-4,5.3e-4 c 2.6e-5,-8e-5 2.65e-4,-0.001 5.29e-4,-0.002 2.134963,-1.38122 4.286663,-2.75722 6.449219,-4.12998 2.348431,-1.51447 4.690462,-3.03885 6.478672,-4.70514 1.13833,-1.04225 2.232178,-2.09791 3.021004,-3.20497 0.521409,-0.71689 0.998919,-1.44937 1.055751,-2.20813 0.01945,-0.5259 -0.01728,-1.05687 -0.494543,-1.54771 -0.479814,-0.38829 -1.083188,-0.72177 -1.959054,-0.94516 -0.959625,-0.27477 -1.865374,-0.44385 -2.969845,-0.57361 -1.114335,-0.15156 -2.217661,-0.32048 -3.323312,-0.48421 -0.446503,-0.0701 -1.169964,-0.13473 -1.278475,-0.3762 0.01159,-0.24044 0.181499,-0.46709 0.467673,-0.67076 0.494958,-0.31983 1.061915,-0.61732 1.624189,-0.91364 0.776259,-0.42663 1.532351,-0.86158 2.201934,-1.32344 0.645266,-0.45204 1.267066,-0.91771 1.431954,-1.45934 0.123979,-0.46785 0.186674,-0.93496 0.05064,-1.40457 -0.09707,-0.33766 -0.243753,-0.66661 -0.634585,-0.96428 -0.2618,-0.18617 -0.541943,-0.37229 -0.974101,-0.48731 -0.3283,-0.0795 -0.657981,-0.13018 -1.014409,-0.13952 -0.118809,-0.003 -0.240681,-6.4e-4 -0.366388,0.005 -0.519938,0.006 -1.038169,0.029 -1.539438,0.0951 -0.76232,0.0981 -1.532602,0.18539 -2.277898,0.30799 l -2.459281,0.87075 c 0.724619,-0.14602 1.499732,-0.22851 2.260843,-0.32608 0.483796,-0.0675 0.982324,-0.10142 1.486215,-0.11782 0.454104,-0.0232 0.868828,-0.005 1.285708,0.077 0.406009,0.0894 0.650724,0.25673 0.890903,0.42064 0.373208,0.27849 0.50165,0.58748 0.58756,0.90486 0.134054,0.45896 0.05747,0.91451 -0.07028,1.37097 -0.202906,0.52232 -0.842544,0.96787 -1.487249,1.40147 -0.679709,0.4554 -1.426541,0.89123 -2.217952,1.30896 -0.565163,0.30227 -1.177883,0.59642 -1.637109,0.93431 -0.282819,0.23191 -0.433068,0.48515 -0.403075,0.74879 0.155605,0.31458 0.89317,0.41793 1.495,0.51522 1.114472,0.16287 2.228757,0.32541 3.346563,0.48369 1.03015,0.12485 2.00914,0.29362 2.914036,0.54674 0.831252,0.21101 1.422191,0.51613 1.875338,0.88625 0.446712,0.46935 0.461605,0.97813 0.439248,1.47897 -0.04675,0.74697 -0.55063,1.46259 -1.071769,2.16576 -0.761129,1.09495 -1.824225,2.13924 -2.942974,3.1688 -1.760534,1.65123 -4.091357,3.15713 -6.384623,4.66535 -1.211112,0.77896 -2.417371,1.55924 -3.624582,2.33939 2e-6,10e-4 -5.3e-4,0.003 -5.3e-4,0.004 l -0.538466,0.34468 v -5.3e-4 c -0.470385,0.30397 -0.942303,0.6075 -1.412317,0.91158 z m 1.711005,0.0279 c -1.3e-5,1.3e-4 -5.29e-4,0.003 -5.29e-4,0.003 v -0.003 z m -15.3112096,9.65057 c -0.014661,0.0129 -0.029325,0.0258 -0.043925,0.0388 v 0.0522 c 0.012729,0.0168 0.023601,0.0385 0.03514,0.0584 0.003,-0.0498 0.00558,-0.0996 0.00878,-0.14934 z"
       id="path332"
       inkscape:connector-curvature="0"
       clip-path="url(#clipPath3745)"
       transform="translate(-4.4021833,-3.3550988)" />
  </g>
</svg>
