<?xml version="1.0" encoding="UTF-8" standalone="no"?>
<svg
   xmlns:dc="http://purl.org/dc/elements/1.1/"
   xmlns:cc="http://creativecommons.org/ns#"
   xmlns:rdf="http://www.w3.org/1999/02/22-rdf-syntax-ns#"
   xmlns:svg="http://www.w3.org/2000/svg"
   xmlns="http://www.w3.org/2000/svg"
   xmlns:sodipodi="http://sodipodi.sourceforge.net/DTD/sodipodi-0.dtd"
   xmlns:inkscape="http://www.inkscape.org/namespaces/inkscape"
   viewBox="0 0 43.5 43.5"
   width="300"
   height="300"
   version="1.1"
   id="svg10"
   sodipodi:docname="css-logo.svg"
   inkscape:version="0.92.4 (5da689c313, 2019-01-14)">
  <metadata
     id="metadata16">
    <rdf:RDF>
      <cc:Work
         rdf:about="">
        <dc:format>image/svg+xml</dc:format>
        <dc:type
           rdf:resource="http://purl.org/dc/dcmitype/StillImage" />
        <dc:title></dc:title>
      </cc:Work>
    </rdf:RDF>
  </metadata>
  <defs
     id="defs14" />
  <sodipodi:namedview
     pagecolor="#ffffff"
     bordercolor="#666666"
     borderopacity="1"
     objecttolerance="10"
     gridtolerance="10"
     guidetolerance="10"
     inkscape:pageopacity="0"
     inkscape:pageshadow="2"
     inkscape:window-width="1920"
     inkscape:window-height="1001"
     id="namedview12"
     showgrid="false"
     scale-x="0.145"
     inkscape:zoom="1.5733333"
     inkscape:cx="-129.14808"
     inkscape:cy="154.52688"
     inkscape:window-x="-9"
     inkscape:window-y="-9"
     inkscape:window-maximized="1"
     inkscape:current-layer="svg10" />
  <path
     d="m 38.75,2.75 h -34 l 3,34 14,4 14,-4 z"
     id="path2"
     inkscape:connector-curvature="0"
     style="fill:#2062af;fill-opacity:1" />
  <path
     d="m 21.75,5.75 v 31.9 l 11.2,-3.2 2.5,-28.7 z"
     id="path4"
     inkscape:connector-curvature="0"
     style="fill:#3c9cd7;fill-opacity:1" />
  <path
     d="m 30.85,10.75 h -9.1 v 4 h 4.9 l -0.3,4 h -4.6 v 4 h 4.4 l -0.3,4.5 -4.1,1.4 v 4.2 l 7.9,-2.6 0.7,-11.5 v 0 z"
     id="path6"
     inkscape:connector-curvature="0"
     style="fill:#ffffff" />
  <path
     d="m 21.75,10.75 v 4 h -8.9 l -0.3,-4 z m -4.6,8 0.2,4 h 4.4 v -4 z m 0.4,6 h -4 l 0.3,5.5 7.9,2.6 v -4.2 l -4.1,-1.4 z"
     id="path8"
     inkscape:connector-curvature="0"
     style="fill:#eeeeee" />
</svg>
