<?xml version="1.0" encoding="UTF-8" standalone="no"?>
<svg
   xmlns:dc="http://purl.org/dc/elements/1.1/"
   xmlns:cc="http://creativecommons.org/ns#"
   xmlns:rdf="http://www.w3.org/1999/02/22-rdf-syntax-ns#"
   xmlns:svg="http://www.w3.org/2000/svg"
   xmlns="http://www.w3.org/2000/svg"
   xmlns:sodipodi="http://sodipodi.sourceforge.net/DTD/sodipodi-0.dtd"
   xmlns:inkscape="http://www.inkscape.org/namespaces/inkscape"
   id="Layer_1"
   enable-background="new 0 0 512.418 512.418"
   height="300"
   viewBox="0 0 540.246 540.246"
   width="300"
   version="1.1"
   sodipodi:docname="globe.svg"
   inkscape:version="0.92.4 (5da689c313, 2019-01-14)">
  <metadata
     id="metadata9">
    <rdf:RDF>
      <cc:Work
         rdf:about="">
        <dc:format>image/svg+xml</dc:format>
        <dc:type
           rdf:resource="http://purl.org/dc/dcmitype/StillImage" />
        <dc:title></dc:title>
      </cc:Work>
    </rdf:RDF>
  </metadata>
  <defs
     id="defs7" />
  <sodipodi:namedview
     pagecolor="#ffffff"
     bordercolor="#666666"
     borderopacity="1"
     objecttolerance="10"
     gridtolerance="10"
     guidetolerance="10"
     inkscape:pageopacity="0"
     inkscape:pageshadow="2"
     inkscape:window-width="1920"
     inkscape:window-height="1001"
     id="namedview5"
     showgrid="false"
     scale-x="1.80082"
     inkscape:zoom="0.921875"
     inkscape:cx="122.19452"
     inkscape:cy="107.72316"
     inkscape:window-x="-9"
     inkscape:window-y="-9"
     inkscape:window-maximized="1"
     inkscape:current-layer="Layer_1" />
  <path
     d="m 451.24918,88.99669 c -100.1,-100.102006 -262.136,-100.118006 -362.251988,0 -100.102998,100.102 -100.117998,262.136 0,362.253 100.099988,100.102 262.135988,100.117 362.251988,0 100.103,-100.102 100.117,-262.136 0,-362.253 z m -10.706,325.739 c -11.968,-10.702 -24.77,-20.173 -38.264,-28.335 8.919,-30.809 14.203,-64.712 15.452,-99.954 h 75.309 c -3.405,47.503 -21.657,92.064 -52.497,128.289 z M 47.205192,286.44669 h 75.308988 c 1.249,35.242 6.533,69.145 15.452,99.954 -13.494,8.162 -26.296,17.633 -38.26399,28.335 -30.839998,-36.225 -49.090998,-80.786 -52.496998,-128.289 z m 52.497998,-160.936 c 11.96799,10.702 24.76999,20.173 38.26399,28.335 -8.919,30.809 -14.203,64.712 -15.452,99.954 H 47.205192 c 3.406,-47.502 21.657,-92.063 52.497998,-128.289 z m 154.09699,31.709 c -26.622,-1.904 -52.291,-8.461 -76.088,-19.278 13.84,-35.639 39.354,-78.384 76.088,-88.977 z m 0,32.708 v 63.873 h -98.625 c 1.13,-29.812 5.354,-58.439 12.379,-84.632 27.043,11.822 56.127,18.882 86.246,20.759 z m 0,96.519 v 63.873 c -30.119,1.877 -59.203,8.937 -86.246,20.759 -7.025,-26.193 -11.249,-54.82 -12.379,-84.632 z m 0,96.581 v 108.254 c -36.732,-10.593 -62.246,-53.333 -76.088,-88.976 23.797,-10.817 49.466,-17.374 76.088,-19.278 z m 32.646,0 c 26.622,1.904 52.291,8.461 76.088,19.278 -13.841,35.64 -39.354,78.383 -76.088,88.976 z m 0,-32.708 v -63.873 h 98.625 c -1.13,29.812 -5.354,58.439 -12.379,84.632 -27.043,-11.822 -56.127,-18.882 -86.246,-20.759 z m 0,-96.519 v -63.873 c 30.119,-1.877 59.203,-8.937 86.246,-20.759 7.025,26.193 11.249,54.82 12.379,84.632 z m 0,-96.581 v -108.254 c 36.734,10.593 62.248,53.338 76.088,88.977 -23.797,10.816 -49.466,17.373 -76.088,19.277 z m 73.32,-91.957 c 20.895,9.15 40.389,21.557 57.864,36.951 -8.318,7.334 -17.095,13.984 -26.26,19.931 -8.139,-20.152 -18.536,-39.736 -31.604,-56.882 z m -210.891,56.882 c -9.165,-5.947 -17.941,-12.597 -26.26,-19.931 17.475,-15.394 36.969,-27.801 57.864,-36.951 -13.068,17.148 -23.465,36.732 -31.604,56.882 z m 0.001,295.958 c 8.138,20.151 18.537,39.736 31.604,56.882 -20.895,-9.15 -40.389,-21.557 -57.864,-36.951 8.318,-7.334 17.095,-13.984 26.26,-19.931 z m 242.494,0 c 9.165,5.947 17.942,12.597 26.26,19.93 -17.475,15.394 -36.969,27.801 -57.864,36.951 13.067,-17.144 23.465,-36.729 31.604,-56.881 z m 26.362,-164.302 c -1.249,-35.242 -6.533,-69.146 -15.452,-99.954 13.494,-8.162 26.295,-17.633 38.264,-28.335 30.84,36.225 49.091,80.786 52.497,128.289 z"
     id="path2"
     inkscape:connector-curvature="0" />
</svg>
