<?xml version="1.0" encoding="UTF-8" standalone="no"?>
<!-- Generator: Adobe Illustrator 24.0.3, SVG Export Plug-In . SVG Version: 6.00 Build 0)  -->

<svg
   xmlns:dc="http://purl.org/dc/elements/1.1/"
   xmlns:cc="http://creativecommons.org/ns#"
   xmlns:rdf="http://www.w3.org/1999/02/22-rdf-syntax-ns#"
   xmlns:svg="http://www.w3.org/2000/svg"
   xmlns="http://www.w3.org/2000/svg"
   xmlns:sodipodi="http://sodipodi.sourceforge.net/DTD/sodipodi-0.dtd"
   xmlns:inkscape="http://www.inkscape.org/namespaces/inkscape"
   version="1.1"
   id="Layer_1"
   x="0px"
   y="0px"
   viewBox="0 0 570 570"
   xml:space="preserve"
   sodipodi:docname="spring-boot-7f2e24fb962501672cc91ccd285ed2ba.svg"
   width="300"
   height="300"
   inkscape:version="0.92.4 (5da689c313, 2019-01-14)"><metadata
   id="metadata15"><rdf:RDF><cc:Work
       rdf:about=""><dc:format>image/svg+xml</dc:format><dc:type
         rdf:resource="http://purl.org/dc/dcmitype/StillImage" /><dc:title>icon-spring-boot</dc:title></cc:Work></rdf:RDF></metadata><defs
   id="defs13" /><sodipodi:namedview
   pagecolor="#ffffff"
   bordercolor="#666666"
   borderopacity="1"
   objecttolerance="10"
   gridtolerance="10"
   guidetolerance="10"
   inkscape:pageopacity="0"
   inkscape:pageshadow="2"
   inkscape:window-width="1920"
   inkscape:window-height="1001"
   id="namedview11"
   showgrid="false"
   scale-x="1.9"
   inkscape:zoom="0.72903978"
   inkscape:cx="-235.32661"
   inkscape:cy="187.42408"
   inkscape:window-x="-9"
   inkscape:window-y="-9"
   inkscape:window-maximized="1"
   inkscape:current-layer="Layer_1" />
<style
   type="text/css"
   id="style2">
	.st0{fill:#6DB33F;}
</style>
<title
   id="title4">icon-spring-boot</title>
<g
   id="Layer_2_1_"
   transform="translate(29.95,56.1)">
	<g
   id="Layer_1-2">
		<path
   class="st0"
   d="M 503.5,201.4 403,27.5 C 394.3,12.4 372.9,0 355.4,0 H 154.6 C 137.2,0 115.7,12.4 107,27.5 L 6.6,201.4 c -8.7,15.1 -8.7,39.8 0,54.9 l 100.4,174 c 8.7,15.1 30.1,27.5 47.6,27.5 h 200.9 c 17.4,0 38.8,-12.4 47.6,-27.5 l 100.4,-174 c 8.7,-15.1 8.7,-39.8 0,-54.9 z M 233.3,96.2 c 0,-11.4 9.3,-20.7 20.7,-20.7 11.4,0 20.7,9.3 20.7,20.7 v 123.7 c 0,11.4 -9.3,20.7 -20.7,20.7 -11.4,0 -20.7,-9.3 -20.7,-20.7 v 0 z M 254,360.3 c -77.4,0 -140.4,-63 -140.4,-140.4 0.1,-44.4 21.1,-86.1 56.7,-112.7 8.2,-6.1 19.7,-4.4 25.8,3.8 6.1,8.2 4.4,19.7 -3.8,25.8 v 0 c -45.9,34.1 -55.5,99 -21.4,144.9 34.1,45.9 99,55.5 144.9,21.4 26.3,-19.5 41.8,-50.4 41.8,-83.2 -0.1,-32.9 -15.7,-63.8 -42.2,-83.4 -8.2,-6 -9.9,-17.6 -3.9,-25.8 6,-8.2 17.6,-9.9 25.8,-3.9 35.9,26.5 57,68.5 57.1,113.1 0,77.5 -63,140.4 -140.4,140.4 z"
   id="path6"
   inkscape:connector-curvature="0"
   style="fill:#6db33f" />
	</g>
</g>
</svg>